<?xml version="1.0" encoding="utf-8"?>
<!-- Generator: Adobe Illustrator 27.7.0, SVG Export Plug-In . SVG Version: 6.00 Build 0)  -->
<svg version="1.1" id="レイヤー_1" xmlns="http://www.w3.org/2000/svg" xmlns:xlink="http://www.w3.org/1999/xlink" x="0px"
	 y="0px" width="512.1px" height="426.6px" viewBox="0 0 512.1 426.6" style="enable-background:new 0 0 512.1 426.6;"
	 xml:space="preserve">
<style type="text/css">
	.st0{fill:#201F85;}
	.st1{fill:#00A9E0;}
</style>
<g>
	<path class="st0" d="M15.2,369.3v12.2h35.2c0.3,0,0.6,0,0.9,0.1c0.3,0.1,0.6,0.3,0.8,0.5c0.2,0.2,0.4,0.5,0.6,0.7
		c0.1,0.3,0.2,0.6,0.2,0.9v9c0,0.3-0.1,0.6-0.2,0.9c-0.1,0.3-0.3,0.5-0.6,0.7c-0.2,0.2-0.5,0.4-0.8,0.5c-0.3,0.1-0.6,0.1-0.9,0.1
		H15.2v13.8c0,0.2,0,0.5,0.1,0.7c0.1,0.2,0.2,0.4,0.4,0.6c0.2,0.2,0.4,0.3,0.6,0.4c0.2,0.1,0.5,0.1,0.7,0.1h39.6
		c0.6,0,1.2,0.3,1.6,0.7c0.4,0.4,0.7,1,0.7,1.6v8.8c0,0.6-0.3,1.2-0.7,1.6c-0.4,0.4-1,0.7-1.6,0.7H5.7c-1.5,0-2.9-0.6-3.9-1.6
		c-1.1-1-1.7-2.4-1.7-3.9v-59.1c0-0.7,0.2-1.4,0.5-2.1c0.3-0.7,0.7-1.3,1.2-1.8c0.5-0.5,1.1-0.9,1.8-1.2c0.7-0.3,1.4-0.4,2.1-0.4
		h50.9c0.6,0,1.2,0.2,1.6,0.6c0.4,0.4,0.7,1,0.7,1.6v9c0,0.6-0.3,1.2-0.7,1.6c-0.4,0.4-1,0.6-1.6,0.6H17c-0.2,0-0.5,0.1-0.7,0.1
		c-0.2,0.1-0.4,0.2-0.6,0.4c-0.2,0.2-0.3,0.4-0.4,0.6C15.2,368.8,15.1,369.1,15.2,369.3z"/>
	<path class="st0" d="M125.5,374.8L106,418.2c-0.8,1.7-2.1,3.2-3.7,4.2c-1.6,1-3.4,1.6-5.3,1.6c-1.9,0-3.7-0.6-5.3-1.6
		c-1.6-1-2.8-2.5-3.7-4.2l-19.9-43.4c-0.1-0.4-0.2-0.8-0.2-1.2c0-0.4,0.1-0.8,0.3-1.2c0.2-0.4,0.5-0.7,0.8-0.9
		c0.3-0.2,0.7-0.4,1.1-0.5h9.1c0.6,0,1.3,0.1,1.8,0.5c0.5,0.3,1,0.8,1.2,1.4l13.4,29.4c0.1,0.1,0.3,0.3,0.5,0.3
		c0.2,0.1,0.4,0.1,0.6,0.1c0.2,0,0.4,0,0.6-0.1c0.2-0.1,0.3-0.2,0.5-0.3l13.8-29.4c0.2-0.6,0.6-1.1,1.2-1.4c0.5-0.3,1.1-0.5,1.7-0.5
		h9.2c0.4,0.1,0.7,0.3,1,0.5c0.3,0.3,0.5,0.6,0.7,0.9c0.2,0.4,0.2,0.7,0.2,1.1C125.8,374.1,125.7,374.5,125.5,374.8z"/>
	<path class="st0" d="M180.6,402.5h-35.7c0.2,1.6,0.7,3.2,1.5,4.6c0.8,1.4,1.9,2.7,3.2,3.7c1.3,1,2.8,1.7,4.3,2.2
		c1.6,0.4,3.2,0.5,4.8,0.3c2.6,0.3,5.2-0.4,7.3-1.9c0.7-0.7,1.6-1.1,2.6-1.1h12c0.3,0,0.6,0.1,0.9,0.2c0.3,0.1,0.5,0.4,0.7,0.6
		c0.2,0.3,0.3,0.6,0.3,0.9c0,0.3-0.1,0.6-0.2,0.9c-2.2,4.3-5.5,7.9-9.7,10.4c-4.2,2.5-8.9,3.6-13.8,3.4c-3.7,0.1-7.3-0.5-10.7-1.9
		c-3.4-1.3-6.5-3.4-9.1-6c-2.6-2.6-4.6-5.7-6-9.1c-1.3-3.4-2-7-1.9-10.7c-0.1-3.7,0.5-7.3,1.8-10.7c1.3-3.4,3.4-6.5,6-9.1
		c2.6-2.6,5.7-4.6,9.1-6c3.4-1.3,7.1-2,10.7-1.8c3.8-0.2,7.5,0.4,11,1.8c3.5,1.4,6.6,3.6,9.2,6.3c2.6,2.8,4.5,6,5.6,9.6
		c1.1,3.6,1.5,7.4,1,11.1c-0.1,0.5-0.4,1-0.7,1.4c-0.3,0.4-0.8,0.7-1.2,0.9c-0.5,0.2-1,0.3-1.5,0.3
		C181.6,402.8,181.1,402.7,180.6,402.5z M145.3,392.7h24c-0.1-1.5-0.4-2.9-1.1-4.2c-0.6-1.3-1.6-2.5-2.7-3.4c-1.1-0.9-2.4-1.6-3.8-2
		c-1.4-0.4-2.9-0.5-4.3-0.3c-2.8-0.2-5.6,0.6-7.9,2.3c-2.3,1.7-3.8,4.2-4.4,6.9L145.3,392.7z"/>
	<path class="st0" d="M300.9,421.1c0.1,0.5-0.1,1.1-0.3,1.5c-0.3,0.5-0.7,0.8-1.2,1c-3.5,1.2-7.2,1.7-10.9,1.7
		c-3,0.3-6.1-0.1-8.9-1.2c-2.9-1.1-5.4-2.7-7.6-4.9c-2.1-2.2-3.7-4.8-4.7-7.7c-1-2.9-1.3-5.9-1-9v-19.2h-8.8c-0.7,0-1.3-0.3-1.8-0.7
		c-0.5-0.5-0.7-1.1-0.7-1.8v-7.3c0-0.3,0.1-0.6,0.2-0.9c0.1-0.3,0.3-0.6,0.5-0.8c0.2-0.2,0.5-0.4,0.8-0.5c0.3-0.1,0.6-0.2,0.9-0.1
		h8.8v-15.5c0-0.7,0.3-1.3,0.7-1.8c0.5-0.5,1.1-0.7,1.8-0.7h9.6c0.6,0,1.2,0.3,1.7,0.8c0.4,0.5,0.7,1.1,0.7,1.7v15.5h17
		c0.3,0,0.6,0,0.9,0.1c0.3,0.1,0.6,0.3,0.8,0.5c0.2,0.2,0.4,0.5,0.5,0.8c0.1,0.3,0.2,0.6,0.2,0.9v7.3c0,0.7-0.3,1.3-0.7,1.8
		c-0.5,0.5-1.1,0.7-1.8,0.7h-17v19.2c-0.1,1.2,0.1,2.5,0.5,3.7c0.4,1.2,1.1,2.2,2,3.1c0.9,0.9,2,1.5,3.2,1.9
		c1.2,0.4,2.4,0.5,3.7,0.3c2.3,0,4.5-0.4,6.6-1.1c0.3-0.1,0.6-0.1,1-0.1c0.3,0,0.6,0.1,0.9,0.3c0.3,0.2,0.5,0.4,0.7,0.7
		c0.2,0.3,0.3,0.6,0.3,0.9L300.9,421.1z"/>
	<path class="st0" d="M380,356.3v65.2c0,0.3,0,0.6-0.1,0.9c-0.1,0.3-0.3,0.6-0.5,0.8s-0.5,0.4-0.8,0.5c-0.3,0.1-0.6,0.2-0.9,0.2
		h-10.2c-0.7,0-1.3-0.3-1.8-0.7c-0.5-0.5-0.7-1.1-0.7-1.8v-26.1h-34.7v26.1c0,0.6-0.2,1.2-0.7,1.7c-0.4,0.5-1,0.7-1.7,0.8h-10.3
		c-0.6,0-1.2-0.3-1.7-0.8c-0.4-0.5-0.7-1.1-0.7-1.7v-65.2c0-0.3,0.1-0.6,0.2-0.9c0.1-0.3,0.3-0.5,0.5-0.8c0.2-0.2,0.5-0.4,0.8-0.5
		c0.3-0.1,0.6-0.2,0.9-0.2h10.3c0.6,0,1.2,0.2,1.7,0.7c0.4,0.4,0.7,1,0.7,1.7v25.1H365v-25.1c0-0.3,0.1-0.6,0.2-0.9
		c0.1-0.3,0.3-0.6,0.5-0.8c0.2-0.2,0.5-0.4,0.8-0.5c0.3-0.1,0.6-0.2,0.9-0.1h10.2c0.3,0,0.6,0,0.9,0.1c0.3,0.1,0.6,0.3,0.8,0.5
		c0.2,0.2,0.4,0.5,0.5,0.8C380,355.7,380.1,356,380,356.3z"/>
	<path class="st0" d="M246,424h-10.2c-0.3,0-0.6-0.1-0.9-0.2c-0.3-0.1-0.6-0.3-0.8-0.5c-0.2-0.2-0.4-0.5-0.5-0.8
		c-0.1-0.3-0.2-0.6-0.1-0.9v-24.3c0-3-1.1-5.9-3.1-8.2s-4.8-3.6-7.8-3.9c-1.6-0.1-3.2,0.1-4.7,0.7c-1.5,0.5-2.9,1.4-4,2.5
		c-1.2,1.1-2.1,2.4-2.7,3.8c-0.6,1.5-1,3-1,4.6v24.7c0,0.7-0.3,1.3-0.7,1.8c-0.5,0.5-1.1,0.7-1.8,0.7h-9.9c-0.6,0-1.2-0.3-1.7-0.8
		c-0.4-0.5-0.7-1.1-0.7-1.7v-24c-0.2-7,2.3-13.8,7-19c4.7-5.2,11.3-8.3,18.3-8.6c3.6-0.2,7.1,0.4,10.5,1.6c3.3,1.2,6.4,3.2,9,5.6
		c2.6,2.5,4.6,5.4,6,8.7c1.4,3.3,2.1,6.8,2.1,10.4v25.3c0,0.3,0,0.6-0.1,0.9c-0.1,0.3-0.3,0.6-0.5,0.8c-0.2,0.2-0.5,0.4-0.8,0.5
		C246.6,423.9,246.3,424,246,424z"/>
	<path class="st0" d="M418.2,424.5c-6.9-0.6-13.4-3.7-18.1-8.8c-4.7-5.1-7.3-11.8-7.3-18.8v-20.3c0-0.8,0.3-1.5,0.8-2.1
		c0.5-0.5,1.3-0.8,2-0.8h9c0.8,0,1.5,0.3,2,0.8c0.5,0.5,0.9,1.3,0.9,2.1v21.1c0,3,1.1,5.9,3.1,8.2c2,2.2,4.8,3.6,7.8,3.9
		c1.6,0.1,3.2-0.1,4.7-0.7c1.5-0.5,2.9-1.4,4-2.5c1.2-1.1,2.1-2.4,2.7-3.8c0.6-1.5,1-3,1-4.6v-21.5c0-0.4,0.1-0.8,0.2-1.1
		c0.1-0.4,0.4-0.7,0.6-0.9c0.3-0.3,0.6-0.5,0.9-0.6c0.3-0.1,0.7-0.2,1.1-0.2h8.8c0.8,0,1.5,0.3,2,0.8c0.5,0.5,0.9,1.3,0.9,2.1v21.5
		c0,3.5-0.7,7-2.1,10.3c-1.4,3.3-3.4,6.2-6,8.7c-2.5,2.5-5.6,4.4-8.9,5.7C425.3,424.1,421.8,424.7,418.2,424.5z"/>
	<path class="st0" d="M487.7,370.6c-5.5-0.5-11.1,0.6-16,3.3v-20.2c0-0.8-0.3-1.7-0.9-2.2c-0.6-0.6-1.4-0.9-2.2-0.9H460
		c-0.4,0-0.8,0.1-1.2,0.2c-0.4,0.2-0.7,0.4-1,0.7c-0.3,0.3-0.5,0.6-0.6,1c-0.1,0.4-0.2,0.8-0.2,1.2V398c0,5.3,1.6,10.5,4.5,15
		c2.9,4.4,7,8,11.9,10.1c4.9,2.2,10.2,2.9,15.5,2c5.2-0.8,10.1-3.2,14.1-6.7c4-3.6,6.8-8.2,8.2-13.3s1.3-10.6-0.3-15.6
		c-1.6-5.1-4.6-9.6-8.7-12.9c-4.1-3.4-9.1-5.5-14.4-6.1V370.6z M485.1,412c-2.7,0-5.4-0.8-7.7-2.3c-2.3-1.5-4-3.7-5.1-6.2
		c-1-2.5-1.3-5.3-0.8-8c0.5-2.7,1.8-5.1,3.8-7.1c1.9-1.9,4.4-3.2,7.1-3.8c2.7-0.5,5.4-0.3,8,0.8c2.5,1,4.7,2.8,6.2,5.1
		c1.5,2.3,2.3,4.9,2.3,7.7c0,1.8-0.3,3.6-1,5.3c-0.7,1.7-1.7,3.2-3,4.5c-1.3,1.3-2.8,2.3-4.5,3c-1.7,0.7-3.5,1.1-5.3,1.1V412z"/>
</g>
<g>
	<path class="st1" d="M358.5,92.1c-8.4,0-16.4-3.3-22.4-9.2c-6-5.9-9.3-13.9-9.4-22.3V31.9c0-8.5,3.4-16.6,9.3-22.5
		c6-6,14.1-9.3,22.5-9.3c8.4,0,16.5,3.4,22.5,9.3c6,6,9.3,14.1,9.3,22.5v28.7c-0.1,8.4-3.5,16.4-9.4,22.3
		C374.9,88.8,366.9,92.1,358.5,92.1z"/>
	<path class="st0" d="M144.1,287.9c-8.4,0-16.5-3.4-22.5-9.3c-6-6-9.3-14.1-9.3-22.5v-28.7c-0.4-4.4,0.1-8.9,1.5-13.1
		c1.4-4.2,3.7-8.1,6.6-11.4c3-3.3,6.6-5.9,10.7-7.7c4.1-1.8,8.4-2.7,12.9-2.7c4.4,0,8.8,0.9,12.9,2.7c4.1,1.8,7.7,4.4,10.7,7.7
		c3,3.3,5.2,7.2,6.6,11.4c1.4,4.2,1.9,8.7,1.5,13.1v28.7c0,8.4-3.3,16.5-9.2,22.4C160.5,284.5,152.5,287.8,144.1,287.9z"/>
	<path class="st1" d="M251.3,217.9c-18.9-0.3-37.6-4.9-54.5-13.3c-17-8.4-31.8-20.6-43.5-35.5C128.6,138.9,115.2,101,115.4,62V31
		c0-8,3.2-15.7,8.8-21.3c5.6-5.7,13.3-8.8,21.3-8.8c8,0,15.6,3.2,21.3,8.8c5.6,5.7,8.8,13.3,8.8,21.3v31c0,50.8,35.3,95.3,75.7,95.3
		h4.3c4-0.3,8.1,0.3,11.9,1.6s7.4,3.3,10.4,6c3,2.7,5.5,5.9,7.3,9.5c1.8,3.6,2.8,7.6,3.1,11.6c0.3,4-0.2,8.1-1.5,11.9
		c-1.3,3.8-3.3,7.4-6,10.4s-5.9,5.5-9.6,7.2c-3.6,1.7-7.6,2.7-11.6,2.9L251.3,217.9z"/>
	<path class="st0" d="M357,287.9c-7.8,0.1-15.3-2.9-21-8.2c-5.7-5.4-9-12.7-9.4-20.5v-32.2c0-50.8-35.3-95.3-75.4-95.3h-4.6
		c-4,0.3-7.9-0.2-11.7-1.4c-3.8-1.2-7.3-3.2-10.3-5.8c-3-2.6-5.5-5.7-7.3-9.3c-1.8-3.5-2.9-7.4-3.2-11.4c-0.3-4,0.2-7.9,1.4-11.7
		c1.2-3.8,3.2-7.3,5.8-10.3c2.6-3,5.7-5.5,9.3-7.3c3.5-1.8,7.4-2.9,11.3-3.2h9.2c18.9,0.3,37.5,4.8,54.5,13.2
		c17,8.4,31.8,20.5,43.6,35.3c24.6,30.2,38,68.1,37.8,107.1v32.2c0,3.9-0.8,7.7-2.3,11.3c-1.5,3.6-3.8,6.8-6.6,9.5
		c-2.8,2.7-6.1,4.8-9.8,6.1C364.8,287.5,360.9,288.1,357,287.9z"/>
</g>
</svg>
